<svg xmlns="http://www.w3.org/2000/svg" xmlns:xlink="http://www.w3.org/1999/xlink" width="32" height="32" viewBox="0 0 32 32">
    <defs>
        <filter id="0kb03henza">
            <feColorMatrix in="SourceGraphic" values="0 0 0 0 1.000000 0 0 0 0 1.000000 0 0 0 0 1.000000 0 0 0 1.000000 0"/>
        </filter>
        <path id="423lpiu52b" d="M0 0L32 0 32 32 0 32z"/>
    </defs>
    <g fill="none" fill-rule="evenodd">
        <g>
            <g filter="url(#0kb03henza)" transform="translate(-15 -107) translate(15 106)">
                <g transform="translate(0 1)">
                    <mask id="lcy6i9anxc" fill="#fff">
                        <use xlink:href="#423lpiu52b"/>
                    </mask>
                    <path fill="#ffffff" d="M15.995 27.817c-2.913 0-5.587-1.064-7.646-2.821-.5-.429-.79-1.054-.79-1.716 0-2.961 2.4-5.332 5.361-5.332h6.16c2.965 0 5.352 2.37 5.352 5.332 0 .662-.287 1.287-.788 1.716-2.06 1.757-4.733 2.82-7.65 2.82m.004-23.033c2.924 0 5.295 2.372 5.295 5.292 0 2.924-2.371 5.292-5.295 5.292-2.92 0-5.288-2.368-5.288-5.292 0-2.92 2.368-5.292 5.288-5.292m0-4.783C7.165 0 0 7.161 0 15.998 0 24.834 7.165 32 15.998 32 24.835 32 32 24.834 32 15.998 32 7.161 24.838 0 15.998 0" mask="url(#lcy6i9anxc)"/>
                </g>
            </g>
        </g>
    </g>
</svg>
