<svg xmlns="http://www.w3.org/2000/svg" width="60" height="60" viewBox="0 0 60 60">
    <defs>
        <linearGradient id="fmiiy9ob1a" x1="5.327%" x2="100%" y1="0%" y2="100%">
            <stop offset="0%" stop-color="#5774FD"/>
            <stop offset="100%" stop-color="#5829F2"/>
            <stop offset="100%" stop-color="#5E2BFF"/>
        </linearGradient>
    </defs>
    <g fill="none" fill-rule="evenodd">
        <g>
            <g>
                <g transform="translate(-158 -721) translate(0 721) translate(158)">
                    <rect width="60" height="60" fill="url(#fmiiy9ob1a)" rx="30"/>
                    <path fill="#FFF" d="M15.936 35.371c.517 0 .936.42.936.938v4.237c0 1.422 1.155 2.579 2.575 2.579h4.254c.517 0 .936.42.936.937 0 .518-.42.938-.936.938h-4.254C16.995 45 15 43.002 15 40.546V36.31c0-.518.42-.938.936-.938zm28.128 0c.517 0 .936.42.936.938v4.237C45 43.002 43.005 45 40.553 45h-4.254c-.517 0-.936-.42-.936-.938s.419-.937.936-.937h4.254c1.42 0 2.575-1.157 2.575-2.579V36.31c0-.518.419-.938.936-.938zm-1.895-6.356c.516 0 .936.42.936.937 0 .518-.42.938-.936.938H17.885c-.517 0-.936-.42-.936-.938 0-.517.42-.937.936-.937h24.284zM23.7 15c.517 0 .936.42.936.938 0 .517-.419.937-.936.937h-4.254c-1.42 0-2.575 1.157-2.575 2.579v4.237c0 .518-.419.938-.936.938-.517 0-.936-.42-.936-.938v-4.237C15 16.998 16.995 15 19.447 15h4.254zm16.852 0C43.005 15 45 16.998 45 19.454v4.237c0 .518-.42.938-.936.938-.517 0-.936-.42-.936-.938v-4.237c0-1.422-1.155-2.579-2.575-2.579h-4.254c-.517 0-.936-.42-.936-.937 0-.518.419-.938.936-.938h4.254z"/>
                </g>
            </g>
        </g>
    </g>
</svg>
