<svg xmlns="http://www.w3.org/2000/svg" width="16" height="16" viewBox="0 0 16 16">
    <g fill="none" fill-rule="evenodd">
        <g fill="#5739F4" fill-rule="nonzero">
            <g>
                <path d="M91 8c-4.418 0-8 3.582-8 8s3.582 8 8 8c.738 0 1.333-.596 1.333-1.333 0-.347-.129-.658-.346-.894-.21-.235-.334-.542-.334-.884 0-.738.596-1.333 1.334-1.333h1.569c2.453 0 4.444-1.992 4.444-4.445C99 11.182 95.418 8 91 8zm-4.889 8c-.738 0-1.333-.596-1.333-1.333 0-.738.595-1.334 1.333-1.334s1.333.596 1.333 1.334c0 .737-.595 1.333-1.333 1.333zm2.667-3.556c-.738 0-1.334-.595-1.334-1.333s.596-1.333 1.334-1.333c.738 0 1.333.595 1.333 1.333s-.595 1.333-1.333 1.333zm4.444 0c-.738 0-1.333-.595-1.333-1.333s.595-1.333 1.333-1.333 1.334.595 1.334 1.333-.596 1.333-1.334 1.333zM95.89 16c-.738 0-1.333-.596-1.333-1.333 0-.738.595-1.334 1.333-1.334s1.333.596 1.333 1.334c0 .737-.595 1.333-1.333 1.333z" transform="translate(-336 -56) translate(253 48)"/>
            </g>
        </g>
    </g>
</svg>
