<svg xmlns="http://www.w3.org/2000/svg" width="50" height="50" viewBox="0 0 50 50">
    <defs>
        <linearGradient id="j9jilln89a" x1="50%" x2="50%" y1="0%" y2="98.866%">
            <stop offset="0%" stop-color="#7BDAF9"/>
            <stop offset="100%" stop-color="#00A7F9"/>
        </linearGradient>
    </defs>
    <g fill="none" fill-rule="evenodd">
        <g>
            <g>
                <g>
                    <g>
                        <g transform="translate(-201 -240) translate(0 161) translate(15) translate(185 79) translate(1)">
                            <rect width="50" height="50" fill="#E3F7FF" rx="16"/>
                            <path fill="url(#j9jilln89a)" d="M24.769 12c.283.002.521.217.56.502.552 3.761 2.908 5.533 5.325 7.565 2.416 2.032 4.867 4.366 4.867 8.819 0 6.059-4.817 10.971-10.76 10.971C18.816 39.857 14 34.945 14 28.886c.05-5.706 2.484-10.894 10.413-16.773.101-.079.228-.12.356-.112zm-7.33 13.856c-.458-.075-.898.242-.975.714-.826 5.138.895 8.653 5.116 10.449.108.045.217.067.327.067.332 0 .647-.201.783-.532.181-.442-.024-.949-.456-1.132-3.448-1.467-4.785-4.27-4.094-8.573.076-.47-.238-.916-.7-.993zm1.087-3.472c-.625 0-1.131.517-1.131 1.154 0 .637.506 1.153 1.131 1.153s1.132-.516 1.132-1.153-.507-1.154-1.132-1.154z"/>
                        </g>
                    </g>
                </g>
            </g>
        </g>
    </g>
</svg>
