<svg xmlns="http://www.w3.org/2000/svg" width="32" height="32" viewBox="0 0 32 32">
    <g fill="none" fill-rule="evenodd">
        <g fill-rule="nonzero">
            <g transform="translate(-1089 -769) translate(1089 769)">
                <circle cx="15.915" cy="15.915" r="15.672" fill="#F55959"/>
                <path fill="#FFF" d="M20.315 25.589H11.34c-.861 0-1.686-.344-2.292-.956-.607-.612-.943-1.44-.935-2.302V8.875c0-1.78 1.441-3.223 3.221-3.227h8.981c1.78.004 3.223 1.446 3.227 3.227v13.456c.006.86-.33 1.688-.936 2.3-.606.611-1.43.956-2.291.958zM11.34 7.633c-.69 0-1.248.559-1.248 1.248v13.45c0 .69.559 1.248 1.248 1.248h8.975c.69 0 1.248-.559 1.248-1.248V8.875c0-.69-.559-1.248-1.248-1.248l-8.975.006z"/>
                <path fill="#FFF" d="M15.503 13.987c-2.696.008-5.274-1.107-7.115-3.077l-.274-.3V8.862c0-1.78 1.44-3.223 3.22-3.226h8.981c1.78.003 3.223 1.446 3.227 3.226v.905l-.2.263c-1.831 2.494-4.744 3.965-7.839 3.957zm-5.405-4.163c1.572 1.518 3.709 2.305 5.89 2.17 2.18-.136 4.204-1.181 5.575-2.882v-.237c0-.69-.559-1.248-1.248-1.248H11.34c-.69 0-1.248.559-1.248 1.248l.006.949z"/>
                <circle cx="22.35" cy="19.516" r="4.238" fill="#F55959"/>
                <path fill="#FFF" d="M22.35 24.403c-1.98.003-3.767-1.189-4.526-3.018-.759-1.829-.34-3.935 1.06-5.335 1.4-1.4 3.506-1.818 5.335-1.06 1.829.76 3.02 2.546 3.017 4.526-.006 2.696-2.19 4.88-4.886 4.887zm0-8.476c-1.452-.002-2.763.87-3.32 2.212-.558 1.34-.252 2.885.774 3.913 1.025 1.027 2.57 1.335 3.911.78 1.342-.555 2.217-1.864 2.217-3.316-.003-1.978-1.604-3.582-3.582-3.589z"/>
                <path fill="#FFF" d="M22.125 18.274c-.019.002-.037-.004-.05-.018-.014-.013-.02-.032-.019-.05v-.269c-.002-.054.018-.106.056-.143.039-.038.09-.058.144-.057h.624v-.112c-.003-.055.018-.11.056-.15.043-.034.096-.052.15-.05h.55c.017-.005.036-.003.051.007.016.01.027.025.03.043v.294h.268c.05 0 .068 0 .068.075v.255c.005.053-.013.105-.05.144-.038.037-.09.057-.143.056h-.144v3.12c.005.032-.006.063-.028.085-.022.022-.053.032-.084.028h-.624c-.017.002-.034-.004-.046-.016-.013-.012-.018-.03-.016-.046v-.1l-.3.162c-.136.06-.283.087-.43.081-.215.007-.429-.036-.625-.125-.182-.078-.347-.19-.487-.33-.137-.144-.246-.31-.324-.493-.158-.384-.158-.815 0-1.199.077-.184.19-.351.33-.493.144-.139.31-.25.494-.33.195-.091.409-.134.624-.125.144-.002.287.028.418.087.106.039.207.091.3.156v-.48l-.793-.007zm.05 1.074c-.099-.001-.196.018-.287.056-.18.072-.322.214-.393.393-.04.09-.061.188-.063.287.002.099.024.196.063.287.037.086.09.164.156.231.067.07.147.125.237.162.09.044.188.065.287.063.085.002.17-.013.25-.044.079-.025.151-.068.212-.125.068-.05.125-.114.168-.187.045-.075.075-.157.088-.243v-.319c-.026-.168-.115-.32-.25-.424-.132-.108-.298-.166-.468-.162v.025z"/>
            </g>
        </g>
    </g>
</svg>
