<svg xmlns="http://www.w3.org/2000/svg" width="32" height="32" viewBox="0 0 96 96">
    <defs>
        <linearGradient id="ykyww7eega" x1="90.632%" x2="0%" y1="10.428%" y2="100%">
            <stop offset="0%" stop-color="#FFAC45"/>
            <stop offset="100%" stop-color="#FF7A3B"/>
        </linearGradient>
        <linearGradient id="rfu5vdhk4b" x1="90.632%" x2="0%" y1="30.26%" y2="74.942%">
            <stop offset="0%" stop-color="#FFAC45"/>
            <stop offset="100%" stop-color="#FF7A3B"/>
        </linearGradient>
    </defs>
    <g fill="none" fill-rule="evenodd">
        <g>
            <g transform="translate(-315.000000, -181.000000) translate(315.000000, 181.000000)">
                <rect width="96" height="96" fill="url(#ykyww7eega)" opacity=".15" rx="34.286"/>
                <path fill="url(#rfu5vdhk4b)" d="M20.642 37.43l44.74.216.212.006c2.4.123 4.309 2.121 4.297 4.548l-.088 23.46-.006.212c-.122 2.39-2.099 4.29-4.508 4.298h-.04l-44.739-.216-.212-.006c-2.387-.121-4.29-2.095-4.298-4.509v-.038l.088-23.46c.012-2.491 2.044-4.51 4.532-4.51h.022zM51.27 47.573c-.906-.786-2.278-.75-3.142.11l-7.274 7.244-2.998-3.353-.12-.124c-.863-.833-2.233-.871-3.142-.058l-.124.12c-.833.86-.871 2.233-.058 3.138l4.626 5.173.132.137c.41.39.95.615 1.521.632h.056l.184-.006c.548-.04 1.066-.273 1.457-.664l9-8.965.118-.126c.785-.905.749-2.277-.11-3.14zM29.745 25.73l44.665.216.212.005c2.314.118 4.174 1.978 4.292 4.29l.006.219v.039l-.088 18.306-.006.213c-.12 2.328-2.005 4.196-4.335 4.293l-.213.004-.325-.001.054-11.094-.003-.26c-.113-4.56-3.78-8.267-8.344-8.424l-.259-.005-40.299-.195.015-3.096.006-.217c.12-2.301 1.96-4.146 4.25-4.285l.215-.008h.157z"/>
            </g>
        </g>
    </g>
</svg>
