<svg xmlns="http://www.w3.org/2000/svg" width="32" height="32" viewBox="0 0 32 32">
    <g fill="none" fill-rule="evenodd">
        <g fill-rule="nonzero">
            <g>
                <g transform="translate(-934 -769) translate(923 769) translate(11)">
                    <circle cx="15.915" cy="15.915" r="15.672" fill="#0678FF"/>
                    <g fill="#FFF">
                        <path d="M8.794 22.466c-.172 0-.343-.03-.506-.087C3.328 20.723-.013 16.075 0 10.845v-6.79c-.005-.43.164-.845.468-1.149.304-.304.718-.473 1.149-.468 2.038-.012 4.027-.626 5.717-1.766l.624-.406c.535-.355 1.23-.355 1.766 0l.624.406c1.663 1.122 3.617 1.736 5.623 1.766.43-.005.845.164 1.149.468.304.304.473.718.468 1.149v6.79c.012 5.23-3.328 9.88-8.288 11.54-.164.052-.334.08-.506.081zm-6.81-18.05v6.429c-.012 4.33 2.722 8.191 6.81 9.618 4.088-1.427 6.822-5.288 6.81-9.618V4.417c-2.295-.088-4.52-.814-6.423-2.097l-.387-.263-.387.263C6.503 3.603 4.28 4.329 1.985 4.417z" transform="translate(7.121 4.683)"/>
                        <path d="M8.794 14.82c-.546 0-.989-.44-.992-.985V8.629c0-.548.444-.992.992-.992s.992.444.992.992v5.206c-.003.545-.446.986-.992.986z" transform="translate(7.121 4.683)"/>
                        <path d="M11.397 12.224H6.19c-.548 0-.992-.444-.992-.992s.444-.992.992-.992h5.206c.548 0 .992.444.992.992s-.444.992-.992.992z" transform="translate(7.121 4.683)"/>
                    </g>
                </g>
            </g>
        </g>
    </g>
</svg>
