<?xml version="1.0" encoding="UTF-8"?>
<svg width="32px" height="33px" viewBox="0 0 32 33" version="1.1" xmlns="http://www.w3.org/2000/svg" xmlns:xlink="http://www.w3.org/1999/xlink">
    <title>icon_arrow</title>
    <g id="Page-1" stroke="none" stroke-width="1" fill="none" fill-rule="evenodd">
        <g id="SDKWallet_1_2-Copy-4" transform="translate(-9.000000, -49.000000)">
            <g id="icon_arrow" transform="translate(9.000000, 49.500000)">
                <g id="IcSet/ArrowBack/32px" transform="translate(16.000000, 16.000000) scale(-1, 1) translate(-16.000000, -16.000000) ">
                    <g id="Rectangle">
                        <rect x="0" y="0" width="32" height="32"></rect>
                    </g>
                    <path d="M28,15.0002647 L8.05041667,15.0002647 L15.6894167,7.72426467 C16.0895,7.343348 16.1051667,6.71026467 15.724,6.31018133 C15.3434167,5.91076467 14.7105833,5.89476467 14.3099167,6.27568133 L5.58591667,14.585848 C5.20866667,14.9637647 5,15.4657647 5,16.0002647 C5,16.534098 5.20866667,17.0366813 5.6035,17.4312647 L14.3105833,25.7241813 C14.5039167,25.9087647 14.7519167,26.0002647 15,26.0002647 C15.264,26.0002647 15.528,25.8964313 15.7245833,25.6896813 C16.1055,25.2896813 16.0898333,24.6571813 15.6900833,24.2762647 L8.01891667,17.0002647 L28,17.0002647 C28.5520833,17.0002647 29,16.552348 29,16.0002647 C29,15.4481813 28.5520833,15.0002647 28,15.0002647" id="back_ico" fill="#FFFFFF"></path>
                </g>
            </g>
        </g>
    </g>
</svg>