<svg xmlns="http://www.w3.org/2000/svg" width="50" height="50" viewBox="0 0 50 50">
    <defs>
        <linearGradient id="zd5g1mq8ha" x1="16.484%" x2="100%" y1="3.635%" y2="96.365%">
            <stop offset="0%" stop-color="#00E4B2"/>
            <stop offset="100%" stop-color="#00B55F"/>
        </linearGradient>
    </defs>
    <g fill="none" fill-rule="evenodd">
        <g>
            <g>
                <g>
                    <g>
                        <g transform="translate(-281 -240) translate(0 161) translate(15) translate(243 79) translate(23)">
                            <rect width="50" height="50" fill="#D4FBF1" rx="16"/>
                            <path fill="url(#zd5g1mq8ha)" d="M35.505 24h-3.617c-.332 0-.602-.224-.602-.5s.27-.5.602-.5h3.617c.332 0 .602.224.602.5s-.27.5-.602.5zm0 4h-3.617c-.332 0-.602-.224-.602-.5s.27-.5.602-.5h3.617c.332 0 .602.224.602.5s-.27.5-.602.5zm-1.809 6c-1.343 0-2.41-1.107-2.41-2.5s1.067-2.5 2.41-2.5c1.344 0 2.411 1.107 2.411 2.5S35.04 34 33.697 34zm-5.303-.895c0 1.042-.848 1.895-1.884 1.895h-9.732c-1.036 0-1.884-.853-1.884-1.895v-8.21c0-1.042.848-1.895 1.884-1.895h9.732c1.036 0 1.884.853 1.884 1.895v8.21zm8.124-14.474h-9.496l4.37-4.5c.242-.25.244-.66.002-.912-.239-.249-.625-.25-.866-.004l-4.562 4.671-4.562-4.701c-.24-.248-.627-.246-.866.003-.24.251-.24.66.003.91l4.37 4.5H14.483c-1.366 0-2.483 1.166-2.483 2.591v15.22C12 37.834 13.117 39 14.483 39h22.034C37.883 39 39 37.834 39 36.41V21.19c0-1.393-1.117-2.559-2.483-2.559z"/>
                        </g>
                    </g>
                </g>
            </g>
        </g>
    </g>
</svg>
