<svg xmlns="http://www.w3.org/2000/svg" width="24" height="24" viewBox="0 0 24 24">
    <g fill="none" fill-rule="evenodd">
        <g fill-rule="nonzero">
            <g>
                <g>
                    <path fill="#ECECEC" d="M12 0C5.383 0 0 5.383 0 12s5.383 12 12 12 12-5.383 12-12S18.617 0 12 0z" transform="translate(-336 -591) translate(0 571) translate(336 20)"/>
                    <path fill="#A3A3A3" d="M15.677 8.323c-.334-.335-.877-.335-1.212 0L12 10.788 9.535 8.323c-.335-.335-.878-.335-1.212 0-.335.334-.335.877 0 1.212L10.788 12l-2.465 2.465c-.335.335-.335.878 0 1.212.167.168.386.251.606.251.219 0 .438-.083.606-.25L12 13.211l2.465 2.465c.168.168.387.251.606.251.22 0 .439-.083.606-.25.335-.335.335-.878 0-1.213L13.212 12l2.465-2.465c.335-.335.335-.878 0-1.212z" transform="translate(-336 -591) translate(0 571) translate(336 20)"/>
                </g>
            </g>
        </g>
    </g>
</svg>
