<svg xmlns="http://www.w3.org/2000/svg" width="50" height="50" viewBox="0 0 50 50">
    <defs>
        <linearGradient id="a2aamfjmna" x1="23.781%" x2="76.219%" y1="0%" y2="100%">
            <stop offset="0%" stop-color="#A8E976"/>
            <stop offset="100%" stop-color="#00B600"/>
        </linearGradient>
    </defs>
    <g fill="none" fill-rule="evenodd">
        <g>
            <g>
                <g>
                    <g>
                        <g transform="translate(-41 -240) translate(0 161) translate(15) translate(19 79) translate(7)">
                            <rect width="50" height="50" fill="#E9FBD8" rx="16"/>
                            <path fill="url(#a2aamfjmna)" d="M30.936 28.501l-1.106 1.104c-1.164 1.162-4.25-.116-6.986-2.846-2.736-2.73-3.958-5.81-2.852-6.971l1.106-1.104c.407-.406 1.106-.406 1.572 0l1.63 1.627c.582.58.349 1.568-.408 1.8-.524.175-.873.756-.698 1.279.29 1.22 1.862 2.73 3.027 3.02.524.116 1.106-.174 1.28-.697.233-.755 1.223-.987 1.805-.406l1.63 1.626c.407.407.407 1.104 0 1.568M34.09 13H16.736c-.406 0-.736.341-.736.762v22.233c0 .202.078.395.216.538l2.17 2.244c.287.297.753.297 1.04 0l1.65-1.705 1.648 1.705c.138.143.325.223.52.223.196 0 .383-.08.521-.223l1.649-1.705 1.648 1.705c.138.143.326.223.521.223s.383-.08.52-.223l1.65-1.705 1.648 1.705c.144.149.332.223.52.223.19 0 .378-.074.521-.223l2.17-2.244c.138-.143.216-.336.216-.538V13.762c0-.421-.33-.762-.737-.762"/>
                        </g>
                    </g>
                </g>
            </g>
        </g>
    </g>
</svg>
