<?xml version="1.0" encoding="UTF-8"?>
<svg width="22px" height="24px" viewBox="0 0 22 24" version="1.1" xmlns="http://www.w3.org/2000/svg" xmlns:xlink="http://www.w3.org/1999/xlink">
    <title>icon_1</title>
    <g id="Page-1" stroke="none" stroke-width="1" fill="none" fill-rule="evenodd">
        <g id="SDKWallet_1_2-Copy-5" transform="translate(-24.000000, -747.000000)" fill="#A6A6A6">
            <g id="Group-9" transform="translate(0.000000, 721.000000)">
                <g id="Group-14" transform="translate(24.000000, 26.000000)">
                    <g id="icon_1" transform="translate(0.128211, 0.705464)">
                        <path d="M16.8868259,8.74034335 C16.6974443,9.83737768 16.0210812,10.574746 14.9436747,10.8426388 C14.4816259,10.9572227 14.3521886,11.1752503 14.3182378,11.5906168 C14.2582935,12.3216193 14.1431791,13.1062005 14.0598937,13.9406468 C14.0487536,14.0499258 13.9723643,14.1310894 13.8779387,14.1629183 C13.8259516,14.1756498 13.8031409,14.1422295 13.8031409,14.1422295 C13.3161596,13.6472909 11.823917,13.2860335 10.0499892,13.2860335 C8.31425594,13.2860335 6.84853745,13.631907 6.32972721,14.1104007 C6.32548336,14.1130531 6.32017855,14.1172969 6.31381278,14.1226017 C6.27986201,14.1533696 6.2469722,14.1491258 6.22787489,14.1438209 C6.15201614,14.1061568 6.09048036,14.0377248 6.0782793,13.9459516 C6.04273709,13.6886684 6.00825583,13.4435863 6.00507295,13.1979736 C5.9981767,12.6770415 5.86131265,12.3964171 5.257095,12.2781199 C4.03380624,12.039934 3.25346896,10.9922344 3.22535347,9.76311036 C3.19829895,8.57907718 3.97386191,7.52872517 5.1021946,7.17542494 C5.51543916,7.04598762 5.70535129,7.12768167 5.76900899,7.58389517 C5.81250841,7.89793982 5.98544516,8.48783448 6.10639479,8.68623431 C6.10639479,8.68623431 6.10745575,8.68782575 6.10745575,8.68782575 C6.11488248,8.6973744 6.12283969,8.70480114 6.13557123,8.70480114 C6.15360758,8.70480114 6.16846104,8.69047815 6.16846104,8.67244181 C6.16846104,8.6697894 6.1668696,8.66077123 6.1668696,8.66077123 C5.53506695,5.53995259 6.44749395,3.3495973 9.72957876,2.95226717 C11.7576069,2.76235504 14.8752427,4.28642642 13.056224,5.64445731 C12.8970797,5.76328501 12.5087678,5.95903243 12.4159336,6.00836715 C12.4058545,6.01367196 12.3973668,6.01950725 12.3894096,6.02534253 C12.377739,6.03329975 12.3681903,6.04178744 12.3607636,6.05080561 C12.3549283,6.05717138 12.3506845,6.06406763 12.3464406,6.0704334 C12.3453797,6.07202485 12.3443187,6.07414677 12.3437882,6.07573821 C12.3305262,6.09907937 12.3273433,6.1202986 12.3268128,6.1314387 C12.3294652,6.19562688 12.3819828,6.24230919 12.4467015,6.24814448 C12.5337004,6.25610169 12.7644595,6.10544514 12.8875311,6.03595215 C13.8583109,5.48637403 14.8375785,5.47947778 15.7584932,6.10279273 C16.677286,6.72557721 17.0767381,7.64065662 16.8868259,8.74034335 M10.0791656,16.3134875 C8.10047217,16.3134875 6.49629819,15.7750495 6.49629819,15.1108875 C6.49629819,14.446195 8.10047217,13.9072265 10.0791656,13.9072265 C12.0578591,13.9072265 13.662033,14.446195 13.662033,15.1108875 C13.662033,15.7750495 12.0578591,16.3134875 10.0791656,16.3134875 M18.6395345,16.3713099 C18.462354,16.2455859 18.4252203,16.0031562 18.5472309,15.8238537 C19.7630929,14.0292371 20.4203586,11.8250893 20.2654582,9.46020582 C19.927542,4.30711517 15.6423179,0.172547692 10.4807396,0.00544623516 C3.64125043,-0.215764265 -1.74206889,6.33567381 0.526797563,13.4632141 C1.35275619,16.0577957 4.22265741,18.926636 6.81617812,19.7573689 C8.53546644,20.3074775 10.220804,20.4103908 11.7862529,20.15576 C11.7867834,20.15576 11.7873138,20.156821 11.7878443,20.156821 C11.9602506,20.1276445 12.1374312,20.1175654 12.3162032,20.1043034 C12.5374137,20.0878585 12.7596852,20.0634564 12.986731,20.0634564 C14.3500667,20.0634564 15.6014709,20.5329319 16.5961224,21.3148606 C16.6714507,21.3758659 16.746779,21.4347493 16.8215768,21.5021203 C16.8433265,21.5212176 16.8645457,21.5408454 16.885765,21.5599427 C17.2539187,21.9015724 17.6210114,22.3731698 17.9530924,22.88084 C17.9530924,22.88084 18.059719,23.0856056 18.2740333,22.9582902 C18.3127584,22.93601 18.3514835,22.9142603 18.3896781,22.8914496 C18.8856776,22.5614905 19.8697196,21.7525073 20.19013,20.3950069 C20.1996786,20.3493855 20.2113492,20.3048251 20.2198369,20.2586733 C20.2346904,20.1828146 20.2463609,20.1048339 20.2564401,20.0257922 C20.2755374,19.8714223 20.2909213,19.715461 20.2909213,19.5557862 C20.2909213,18.2396633 19.6378994,17.0773799 18.6395345,16.3713099" id="Fill-17"></path>
                    </g>
                </g>
            </g>
        </g>
    </g>
</svg>