<svg xmlns="http://www.w3.org/2000/svg" width="32" height="32" viewBox="0 0 96 96">
    <defs>
        <linearGradient id="o00ph6351a" x1="100%" x2="0%" y1="0%" y2="100%">
            <stop offset="0%" stop-color="#00BE00"/>
            <stop offset="100%" stop-color="#00A500"/>
        </linearGradient>
        <linearGradient id="sjhys6b8eb" x1="100%" x2="0%" y1="18.363%" y2="81.637%">
            <stop offset="0%" stop-color="#00BE00"/>
            <stop offset="100%" stop-color="#00A500"/>
        </linearGradient>
    </defs>
    <g fill="none" fill-rule="evenodd">
        <g>
            <g transform="translate(-113.000000, -181.000000) translate(113.000000, 181.000000)">
                <rect width="96" height="96" fill="url(#o00ph6351a)" opacity=".15" rx="34.286"/>
                <path fill="url(#sjhys6b8eb)" d="M60.416 25.333c-.098.662-.149 1.334-.149 2.021 0 7.6 6.108 13.78 13.617 13.78 1.19 0 2.345-.158 3.45-.448v14.492c-1.105-.29-2.26-.448-3.45-.448-7.51 0-13.617 6.18-13.617 13.78 0 1.204.157 2.373.443 3.49H34.621l5.897-13.056c1.47.713 3.12 1.114 4.862 1.114 6.216 0 11.256-5.1 11.256-11.391 0-4.674-2.781-8.687-6.76-10.443l5.816-12.89h4.724zM73.884 59.14c1.045 0 2.049.178 2.986.502l.463.174v6.225c0 3.175-2.451 5.769-5.543 5.95l-.346.01h-6.151c-.429-1.08-.668-2.256-.668-3.49 0-5.175 4.146-9.371 9.259-9.371zm-42.945-1.622c.494 0 .962.117 1.37.315.976.474 1.643 1.436 1.643 2.549 0 1.49-1.202 2.72-2.739 2.851l-.274.012h-8.86c-1.666 0-3.014-1.285-3.014-2.863 0-1.018.559-1.906 1.403-2.415.37-.228.799-.379 1.26-.43l.35-.019h8.86zm18.118-16.016c2.473 1.224 4.18 3.789 4.18 6.761 0 4.16-3.334 7.533-7.444 7.533-.991 0-1.932-.198-2.796-.555l6.06-13.739zm-12.793 4.042c.338 0 .656.07.957.19 1.04.416 1.782 1.488 1.782 2.75 0 1.53-1.085 2.784-2.475 2.926l-.264.014H21.771c-1.514 0-2.739-1.315-2.739-2.94 0-.593.165-1.143.446-1.607.28-.46.68-.828 1.15-1.063.264-.13.545-.217.841-.252l.302-.018h14.493zm5.197-11.454c1.564 0 2.83 1.285 2.83 2.864 0 1.49-1.121 2.711-2.557 2.85l-.273.013H21.496c-1.564 0-2.83-1.28-2.83-2.863 0-1.486 1.122-2.712 2.558-2.85l.272-.014h19.965zm29.983-8.756c3.137 0 5.7 2.48 5.88 5.61l.01.35v4.755c-1.069.434-2.23.676-3.45.676-5.113 0-9.26-4.196-9.26-9.37 0-.52.044-1.031.125-1.528l.093-.493h6.602z"/>
            </g>
        </g>
    </g>
</svg>
