<?xml version="1.0" encoding="UTF-8"?>
<svg width="20px" height="24px" viewBox="0 0 20 24" version="1.1" xmlns="http://www.w3.org/2000/svg" xmlns:xlink="http://www.w3.org/1999/xlink">
    <title>icon_4</title>
    <g id="Page-1" stroke="none" stroke-width="1" fill="none" fill-rule="evenodd" opacity="0.699999988">
        <g id="SDKWallet_1_2-Copy-5" transform="translate(-329.000000, -747.000000)">
            <g id="Group-9" transform="translate(0.000000, 721.000000)">
                <g id="Group-14" transform="translate(24.000000, 26.000000)">
                    <g id="icon_4" transform="translate(305.000000, 0.705464)">
                        <path d="M19.9388235,19.3914461 C19.9388235,21.6189461 18.4141176,22.9526961 16.1694118,22.9526961 L3.83058824,22.9526961 C1.58588235,22.9526961 0.0611764706,21.6189461 0.0611764706,19.3914461 C0.0611764706,16.2839461 0.809411765,11.5126961 4.94588235,11.5126961 C5.38352941,11.5126961 7.23294118,13.4239461 10,13.4239461 C12.7670588,13.4239461 14.6164706,11.5126961 15.0541176,11.5126961 C19.1905882,11.5126961 19.9388235,16.2839461 19.9388235,19.3914461 Z M15.4211765,6.2326961 C15.4211765,9.1476961 12.9929412,11.5126961 10,11.5126961 C7.00705882,11.5126961 4.57882353,9.1476961 4.57882353,6.2326961 C4.57882353,3.3176961 7.00705882,0.9526961 10,0.9526961 C12.9929412,0.9526961 15.4211765,3.3176961 15.4211765,6.2326961 Z" id="ic_profile_grey-copy" fill="#A6A6A6"></path>
                        <path d="M1.82936961,17.8864671 C2.10386666,15.8873709 2.94039329,13.8389446 5.15318857,13.8389446" id="Path" stroke="#FFFFFF" stroke-linecap="round" stroke-linejoin="round"></path>
                    </g>
                </g>
            </g>
        </g>
    </g>
</svg>