<svg xmlns="http://www.w3.org/2000/svg" width="50" height="50" viewBox="0 0 50 50">
    <defs>
        <linearGradient id="9k5vq7l7ka" x1="32.456%" x2="72.009%" y1="-7.731%" y2="100%">
            <stop offset="0%" stop-color="#FEA673"/>
            <stop offset="100%" stop-color="#FE4200"/>
        </linearGradient>
    </defs>
    <g fill="none" fill-rule="evenodd">
        <g>
            <g>
                <g>
                    <g>
                        <g transform="translate(-121 -240) translate(0 161) translate(15) translate(105 79) translate(1)">
                            <rect width="50" height="50" fill="#FFEFE9" rx="16"/>
                            <path fill="url(#9k5vq7l7ka)" d="M29.714 11c2.762 0 5 2.239 5 5v19.714c0 2.762-2.238 5-5 5H20c-2.761 0-5-2.238-5-5V16c0-2.761 2.239-5 5-5h9.714zm-4.857 24.45c-.99 0-1.792.819-1.792 1.828 0 1.01.802 1.827 1.792 1.827s1.792-.818 1.792-1.827c0-1.01-.802-1.827-1.792-1.827zm5.169-21.927H19.688c-1.104 0-2 .895-2 2v16.1c0 1.105.896 2 2 2h10.338c1.105 0 2-.895 2-2v-16.1c0-1.105-.895-2-2-2zm-4.484 3.654c.048 0 .09.018.123.052s.05.076.05.125l-.014 1.103c0 .039.024.068.072.088.798.167 1.433.522 1.904 1.066.471.544.707 1.208.707 1.993v.22c0 .05-.017.091-.05.126-.034.034-.075.051-.123.051h-1.573c-.048 0-.088-.017-.122-.051-.034-.035-.05-.076-.05-.125v-.118c0-.412-.16-.762-.477-1.052-.317-.289-.75-.433-1.298-.433-.432 0-.77.098-1.01.294-.24.196-.36.466-.36.809 0 .245.07.45.21.617.138.167.347.319.627.456.278.138.711.314 1.298.53.644.245 1.154.466 1.529.662s.711.49 1.01.882c.297.392.447.897.447 1.515 0 .784-.236 1.431-.707 1.941-.472.51-1.116.834-1.933.97-.048.02-.072.05-.072.09l.014.955c0 .049-.017.09-.05.125-.034.034-.075.051-.123.051h-1.442c-.049 0-.09-.017-.123-.051-.034-.034-.05-.076-.05-.125l.014-.97c0-.04-.024-.07-.072-.09-.818-.165-1.46-.509-1.926-1.028-.466-.52-.7-1.172-.7-1.957v-.323c0-.049.017-.09.051-.125.034-.034.075-.051.123-.051h1.558c.048 0 .088.017.122.05.034.035.05.077.05.126v.22c0 .393.169.724.506.993.336.27.798.405 1.384.405.49 0 .854-.11 1.09-.331.235-.22.353-.493.353-.816 0-.236-.072-.434-.216-.596-.145-.162-.345-.304-.6-.427-.254-.122-.655-.291-1.204-.507-.625-.226-1.149-.456-1.572-.691-.423-.235-.781-.557-1.074-.964-.294-.406-.44-.909-.44-1.507 0-.755.223-1.38.67-1.875.447-.495 1.05-.816 1.81-.963.048-.02.073-.05.073-.089l-.03-1.073c0-.05.017-.09.051-.125.034-.034.075-.052.123-.052h1.442z"/>
                        </g>
                    </g>
                </g>
            </g>
        </g>
    </g>
</svg>
