<svg xmlns="http://www.w3.org/2000/svg" width="13" height="13" viewBox="0 0 13 13">
    <g fill="none" fill-rule="evenodd" opacity=".279">
        <g fill="#000" fill-rule="nonzero">
            <g>
                <path d="M1.501 6.603c-.024-.194-.036-.387-.036-.557 0-2.537 2.162-4.629 4.784-4.629 1.223 0 2.368.477 3.21 1.22l-.422.417c-.095.092-.132.226-.095.354.044.12.146.212.278.24.074.015 2.495.77 2.341.74.196.063.486-.14.432-.418l-.52-2.525c-.029-.127-.124-.233-.256-.269-.124-.035-.264 0-.359.092l-.359.34C9.394.61 7.875 0 6.25 0 2.815 0 0 2.723 0 6.046v.014c0 .2.01.354.02.472.015.156.134.285.293.315l.753.146c.245.047.465-.151.435-.39zM12.689 6.156l-.755-.149c-.245-.048-.467.15-.437.39.027.207.038.408.038.56 0 2.536-2.163 4.627-4.785 4.627-1.223 0-2.368-.477-3.21-1.227l.423-.409c.095-.092.131-.226.095-.354-.044-.12-.147-.212-.279-.24-.073-.015-2.495-.77-2.34-.74-.125-.02-.25.015-.33.1-.088.078-.125.205-.103.318l.52 2.5c.03.127.125.234.257.269.152.037.28-.008.358-.092l.352-.34C3.599 12.367 5.117 13 6.75 13 10.185 13 13 10.279 13 6.958v-.022c0-.156-.006-.31-.02-.464-.013-.156-.132-.285-.291-.316z" transform="translate(-112 -109) translate(112 109)"/>
            </g>
        </g>
    </g>
</svg>
