<svg xmlns="http://www.w3.org/2000/svg" width="19" height="16" viewBox="0 0 19 16">
    <g fill="none" fill-rule="evenodd">
        <g fill="#FFF" fill-rule="nonzero">
            <g>
                <g>
                    <path d="M17.44 6.81h-.1v-.997c0-1.156-.856-2.113-1.992-2.272V2.325c0-1.256-1.037-2.292-2.293-2.292H2.432C1.116.033.02 1.089 0 2.425v11.261c0 1.256 1.036 2.292 2.292 2.292H15.05c1.255 0 2.292-1.036 2.292-2.292V12.59h.1c.717 0 1.295-.578 1.295-1.296V8.105c0-.717-.578-1.295-1.296-1.295zM1.395 2.464c0-.578.479-1.036 1.037-1.036h10.603c.499 0 .897.399.897.897V3.52h-11.5c-.558 0-1.037-.479-1.037-1.057zm15.946 8.73h-3.289c-.817 0-1.495-.677-1.495-1.494 0-.818.678-1.495 1.495-1.495h3.289v2.99z" transform="translate(-176 -116) translate(160 104) translate(16 12)"/>
                </g>
            </g>
        </g>
    </g>
</svg>
